<svg version="1.1" id="Layer_1" xmlns="http://www.w3.org/2000/svg" xmlns:xlink="http://www.w3.org/1999/xlink" x="0px" y="0px"
	 width="194.2px" height="30px" viewBox="0 0 194.2 30" style="enable-background:new 0 0 194.2 30;" xml:space="preserve"  preserveAspectRatio="xMinYMin meet">
<style type="text/css">
	.st1{fill:#152C5D;}
</style>
<path class="st1" d="M118,9.4h2.9V6.2H118V5.5c0-1.4,0-1.9,1.6-1.9h1.2V0c-0.4,0-1,0-2.3,0c-3.1,0-5,1.3-5,4.8v1.4h-2.5v3.2h2.5
	v13.7h4.4L118,9.4L118,9.4z"/>
<path class="st1" d="M184.3,23.1h4.4v-8.8c0-1.9,0.6-4,4.1-4c0.4,0,0.9,0,1.3,0V5.8c-0.3,0-0.6,0-0.9,0c-2.7,0-3.7,1.6-4.7,3.4h0
	V6.2h-4.2V23.1L184.3,23.1z"/>
<polygon class="st1" points="166.5,6.2 161.7,6.2 158.2,18.6 158.1,18.6 154.6,6.2 149.6,6.2 155.7,23.1 160.4,23.1 "/>
<path class="st1" d="M139.5,23.1h4.4v-8.8c0-1.9,0.6-4,4.1-4c0.4,0,0.9,0,1.3,0V5.8c-0.3,0-0.6,0-0.9,0c-2.7,0-3.7,1.6-4.7,3.4h0
	V6.2h-4.2V23.1L139.5,23.1z"/>
<path class="st1" d="M171,13c0.3-2.2,1.4-3.6,3.5-3.6c1.4,0,3.2,0.8,3.4,3.6C177.9,13,171,13,171,13z M177.7,18.1
	c-0.4,1.2-1.6,1.8-2.9,1.8c-3.6,0-3.8-2.9-4-4.1h11.6v-0.8c0-7.7-4.6-9.3-7.9-9.3c-7.4,0-8.1,6.5-8.1,8.5c0,6.9,3.7,9.2,8.4,9.2
	c2.9,0,6.3-1.3,7.4-5.4H177.7z"/>
<path class="st1" d="M132,17c0,2.1-2,3.3-4,3.3c-0.9,0-2.1-0.5-2.1-2.1c0-1.8,1.4-2.2,3-2.6c1.8-0.3,2.6-0.6,3-0.9V17z M136.3,10.6
	c0-4.2-4.3-4.9-6.7-4.9c-3.5,0-7,0.7-7.6,5.9h4.3c0.1-1,0.5-2.3,2.7-2.3c1.1,0,2.9,0.1,2.9,2c0,1-0.9,1.2-1.6,1.3l-4,0.6
	c-2.8,0.4-4.9,2.1-4.9,5.4c0,3.5,2.6,4.9,5.2,4.9c3,0,4.4-1.4,5.5-2.5c0.1,1,0.2,1.2,0.4,2h4.8v-0.7c-0.5-0.2-1-0.6-1-2.6
	L136.3,10.6L136.3,10.6z"/>
<polygon class="st1" points="4.7,13.5 14.8,13.5 14.8,9.5 4.7,9.5 4.7,4.3 16.2,4.3 16.2,0.3 0,0.3 0,23.1 4.7,23.1 "/>
<path class="st1" d="M96.2,23.1h4.4v-8.8c0-1.9,0.6-4,4.1-4c0.4,0,0.9,0,1.3,0V5.8c-0.3,0-0.6,0-0.9,0c-2.7,0-3.7,1.6-4.7,3.4h0V6.2
	h-4.2V23.1z"/>
<polygon class="st1" points="22.3,0.3 17.7,0.3 17.7,23.1 22.3,23.1 22.3,3.3 "/>
<path class="st1" d="M39.8,6.2h-4.4V16c0,3-2,3.8-3.4,3.8c-1.4,0-2.9-0.5-2.9-3.1V6.2h-4.4v11.1c0,4.3,2.4,6.2,5.8,6.2
	c2.4,0,4.1-1,5.2-2.8h0v2.4h4.2C39.8,23.1,39.8,6.2,39.8,6.2z M24.6,3.6H29V0.3h-4.4V3.6z M35.4,3.6h4.4V0.3h-4.4V3.6z"/>
<path class="st1" d="M82.9,13c0.3-2.2,1.4-3.6,3.5-3.6c1.4,0,3.2,0.8,3.4,3.6C89.8,13,82.9,13,82.9,13z M89.5,18.1
	c-0.4,1.2-1.6,1.8-2.9,1.8c-3.6,0-3.8-2.9-4-4.1h11.6v-0.8c0-7.7-4.6-9.3-7.9-9.3c-7.4,0-8.1,6.5-8.1,8.5c0,6.9,3.7,9.2,8.4,9.2
	c2.9,0,6.3-1.3,7.4-5.4H89.5z"/>
<path class="st1" d="M64.7,14.7c0-3.9,1.8-5.2,3.5-5.2c2.5,0,3.8,2.2,3.8,5c0,2.3-0.8,4.9-3.8,4.9C65.6,19.5,64.7,16.9,64.7,14.7
	 M72.2,6.2v2.5h0c-0.5-1.1-1.8-3-5-3c-3.7,0-7,2.9-7,8.7c0,5.9,3.2,8.7,7.3,8.7c2.6,0,3.8-1.2,4.5-2.6l0,0v2.1
	c0,2.7-1.1,3.9-3.5,3.9c-2.6,0-2.9-0.9-3.1-1.7h-4.8c0.2,3.6,3.9,5.1,7.4,5.1c8.3,0,8.5-4.8,8.5-7.8v-16C76.4,6.2,72.2,6.2,72.2,6.2
	z"/>
<path class="st1" d="M46.4,14.7c0-3.9,1.8-5.2,3.5-5.2c2.5,0,3.8,2.2,3.8,5c0,2.3-0.8,4.9-3.8,4.9C47.3,19.5,46.4,16.9,46.4,14.7
	 M53.9,6.2v2.5h0c-0.5-1.1-1.8-3-4.9-3c-3.7,0-7,2.9-7,8.7c0,5.9,3.2,8.7,7.3,8.7c2.6,0,3.8-1.2,4.5-2.6l0,0v2.1
	c0,2.7-1.1,3.9-3.5,3.9c-2.6,0-2.9-0.9-3.1-1.7h-4.9c0.2,3.6,3.9,5.1,7.4,5.1c8.3,0,8.5-4.8,8.5-7.8v-16C58.1,6.2,53.9,6.2,53.9,6.2
	z"/>
</svg>
