<svg width="195" height="30" viewBox="0 0 195 30" fill="none" xmlns="http://www.w3.org/2000/svg">
<g clip-path="url(#clip0_10_77)">
<path d="M118 9.4H120.9V6.2H118V5.5C118 4.1 118 3.6 119.6 3.6H120.8V0C120.4 0 119.8 0 118.5 0C115.4 0 113.5 1.3 113.5 4.8V6.2H111V9.4H113.5V23.1H117.9L118 9.4Z" fill="white"/>
<path d="M184.3 23.0998H188.7V14.2998C188.7 12.3998 189.3 10.2998 192.8 10.2998C193.2 10.2998 193.7 10.2998 194.1 10.2998V5.7998C193.8 5.7998 193.5 5.7998 193.2 5.7998C190.5 5.7998 189.5 7.3998 188.5 9.1998V6.1998H184.3V23.0998Z" fill="white"/>
<path d="M166.5 6.2002H161.7L158.2 18.6002H158.1L154.6 6.2002H149.6L155.7 23.1002H160.4L166.5 6.2002Z" fill="white"/>
<path d="M139.5 23.0998H143.9V14.2998C143.9 12.3998 144.5 10.2998 148 10.2998C148.4 10.2998 148.9 10.2998 149.3 10.2998V5.7998C149 5.7998 148.7 5.7998 148.4 5.7998C145.7 5.7998 144.7 7.3998 143.7 9.1998V6.1998H139.5V23.0998Z" fill="white"/>
<path d="M171 13.0002C171.3 10.8002 172.4 9.4002 174.5 9.4002C175.9 9.4002 177.7 10.2002 177.9 13.0002H171ZM177.7 18.1002C177.3 19.3002 176.1 19.9002 174.8 19.9002C171.2 19.9002 171 17.0002 170.8 15.8002H182.4V15.0002C182.4 7.3002 177.8 5.7002 174.5 5.7002C167.1 5.7002 166.4 12.2002 166.4 14.2002C166.4 21.1002 170.1 23.4002 174.8 23.4002C177.7 23.4002 181.1 22.1002 182.2 18.0002H177.7V18.1002Z" fill="white"/>
<path d="M132 17.0002C132 19.1002 130 20.3002 128 20.3002C127.1 20.3002 125.9 19.8002 125.9 18.2002C125.9 16.4002 127.3 16.0002 128.9 15.6002C130.7 15.3002 131.5 15.0002 131.9 14.7002V17.0002H132ZM136.3 10.6002C136.3 6.4002 132 5.7002 129.6 5.7002C126.1 5.7002 122.6 6.4002 122 11.6002H126.3C126.4 10.6002 126.8 9.3002 129 9.3002C130.1 9.3002 131.9 9.4002 131.9 11.3002C131.9 12.3002 131 12.5002 130.3 12.6002L126.3 13.2002C123.5 13.6002 121.4 15.3002 121.4 18.6002C121.4 22.1002 124 23.5002 126.6 23.5002C129.6 23.5002 131 22.1002 132.1 21.0002C132.2 22.0002 132.3 22.2002 132.5 23.0002H137.3V22.3002C136.8 22.1002 136.3 21.7002 136.3 19.7002V10.6002Z" fill="white"/>
<path d="M4.7 13.4998H14.8V9.4998H4.7V4.2998H16.2V0.299805H0V23.0998H4.7V13.4998Z" fill="white"/>
<path d="M96.2002 23.0998H100.6V14.2998C100.6 12.3998 101.2 10.2998 104.7 10.2998C105.1 10.2998 105.6 10.2998 106 10.2998V5.7998C105.7 5.7998 105.4 5.7998 105.1 5.7998C102.4 5.7998 101.4 7.3998 100.4 9.1998V6.1998H96.2002V23.0998Z" fill="white"/>
<path d="M22.3002 0.299805H17.7002V23.0998H22.3002V3.2998V0.299805Z" fill="white"/>
<path d="M39.7996 6.1998H35.3996V15.9998C35.3996 18.9998 33.3996 19.7998 31.9996 19.7998C30.5996 19.7998 29.0996 19.2998 29.0996 16.6998V6.1998H24.6996V17.2998C24.6996 21.5998 27.0996 23.4998 30.4996 23.4998C32.8996 23.4998 34.5996 22.4998 35.6996 20.6998V23.0998H39.8996C39.7996 23.0998 39.7996 6.1998 39.7996 6.1998ZM24.5996 3.5998H28.9996V0.299805H24.5996V3.5998ZM35.3996 3.5998H39.7996V0.299805H35.3996V3.5998Z" fill="white"/>
<path d="M82.9002 13.0002C83.2002 10.8002 84.3002 9.4002 86.4002 9.4002C87.8002 9.4002 89.6002 10.2002 89.8002 13.0002H82.9002ZM89.5002 18.1002C89.1002 19.3002 87.9002 19.9002 86.6002 19.9002C83.0002 19.9002 82.8002 17.0002 82.6002 15.8002H94.2002V15.0002C94.2002 7.3002 89.6002 5.7002 86.3002 5.7002C78.9002 5.7002 78.2002 12.2002 78.2002 14.2002C78.2002 21.1002 81.9002 23.4002 86.6002 23.4002C89.5002 23.4002 92.9002 22.1002 94.0002 18.0002H89.5002V18.1002Z" fill="white"/>
<path d="M64.7002 14.7002C64.7002 10.8002 66.5002 9.5002 68.2002 9.5002C70.7002 9.5002 72.0002 11.7002 72.0002 14.5002C72.0002 16.8002 71.2002 19.4002 68.2002 19.4002C65.6002 19.5002 64.7002 16.9002 64.7002 14.7002ZM72.2002 6.2002V8.7002C71.7002 7.6002 70.4002 5.7002 67.2002 5.7002C63.5002 5.7002 60.2002 8.60019 60.2002 14.4002C60.2002 20.3002 63.4002 23.1002 67.5002 23.1002C70.1002 23.1002 71.3002 21.9002 72.0002 20.5002V22.6002C72.0002 25.3002 70.9002 26.5002 68.5002 26.5002C65.9002 26.5002 65.6002 25.6002 65.4002 24.8002H60.6002C60.8002 28.4002 64.5002 29.9002 68.0002 29.9002C76.3002 29.9002 76.5002 25.1002 76.5002 22.1002V6.1002C76.4002 6.2002 72.2002 6.2002 72.2002 6.2002Z" fill="white"/>
<path d="M46.4 14.7002C46.4 10.8002 48.2 9.5002 49.9 9.5002C52.4 9.5002 53.7 11.7002 53.7 14.5002C53.7 16.8002 52.9 19.4002 49.9 19.4002C47.3 19.5002 46.4 16.9002 46.4 14.7002ZM53.9 6.2002V8.7002C53.4 7.6002 52.1 5.7002 49 5.7002C45.3 5.7002 42 8.60019 42 14.4002C42 20.3002 45.2 23.1002 49.3 23.1002C51.9 23.1002 53.1 21.9002 53.8 20.5002V22.6002C53.8 25.3002 52.7 26.5002 50.3 26.5002C47.7 26.5002 47.4 25.6002 47.2 24.8002H42.3C42.5 28.4002 46.2 29.9002 49.7 29.9002C58 29.9002 58.2 25.1002 58.2 22.1002V6.1002C58.1 6.2002 53.9 6.2002 53.9 6.2002Z" fill="white"/>
</g>
<defs>
<clipPath id="clip0_10_77">
<rect width="194.2" height="30" fill="white"/>
</clipPath>
</defs>
</svg>
